<svg width="37" height="37" viewBox="0 0 37 37" fill="none" xmlns="http://www.w3.org/2000/svg">
<g clip-path="url(#clip0_2020_259)">
<path d="M13.5828 33.3182C14.4112 33.3182 15.0828 32.6466 15.0828 31.8182C15.0828 30.9897 14.4112 30.3182 13.5828 30.3182C12.7543 30.3182 12.0828 30.9897 12.0828 31.8182C12.0828 32.6466 12.7543 33.3182 13.5828 33.3182Z" fill="#008000" stroke="#008000" stroke-width="4" stroke-linecap="round" stroke-linejoin="round"/>
<path d="M30.0828 33.3182C30.9112 33.3182 31.5828 32.6466 31.5828 31.8182C31.5828 30.9897 30.9112 30.3182 30.0828 30.3182C29.2543 30.3182 28.5828 30.9897 28.5828 31.8182C28.5828 32.6466 29.2543 33.3182 30.0828 33.3182Z" fill="#008000" stroke="#008000" stroke-width="4" stroke-linecap="round" stroke-linejoin="round"/>
<path d="M1.58276 1.81818H7.58276L11.6028 21.9032C11.7399 22.5938 12.1156 23.2141 12.6641 23.6556C13.2125 24.0971 13.8988 24.3317 14.6028 24.3182H29.1828C29.8867 24.3317 30.573 24.0971 31.1214 23.6556C31.6699 23.2141 32.0456 22.5938 32.1828 21.9032L34.5828 9.31818H9.08276" stroke="#008000" stroke-width="4" stroke-linecap="round" stroke-linejoin="round"/>
</g>
<defs>
<clipPath id="clip0_2020_259">
<rect width="36" height="36" fill="white" transform="translate(0.0827637 0.318176)"/>
</clipPath>
</defs>
</svg>
