<svg width="77" height="68" viewBox="0 0 77 68" fill="none" xmlns="http://www.w3.org/2000/svg">
<path d="M9.625 17H16.0417H67.375" stroke="black" stroke-width="5" stroke-linecap="round" stroke-linejoin="round"/>
<path d="M60.9582 17V56.6667C60.9582 58.1696 60.2821 59.6109 59.0788 60.6736C57.8754 61.7363 56.2433 62.3334 54.5415 62.3334H22.4582C20.7564 62.3334 19.1243 61.7363 17.9209 60.6736C16.7175 59.6109 16.0415 58.1696 16.0415 56.6667V17M25.6665 17V11.3334C25.6665 9.83046 26.3425 8.38912 27.5459 7.32642C28.7493 6.26371 30.3814 5.66669 32.0832 5.66669H44.9165C46.6183 5.66669 48.2504 6.26371 49.4538 7.32642C50.6571 8.38912 51.3332 9.83046 51.3332 11.3334V17" stroke="black" stroke-width="5" stroke-linecap="round" stroke-linejoin="round"/>
<path d="M32.0835 31.1667V48.1667" stroke="black" stroke-width="5" stroke-linecap="round" stroke-linejoin="round"/>
<path d="M44.9165 31.1667V48.1667" stroke="black" stroke-width="5" stroke-linecap="round" stroke-linejoin="round"/>
</svg>
